<svg width="96" height="48" viewBox="0 0 96 48" fill="none" xmlns="http://www.w3.org/2000/svg">
  <g clip-path="url(#clip0)">
    <path fill-rule="evenodd" clip-rule="evenodd" d="M12.1484 19.8784C18.5194 15.7371 24.6529 13.1339 28.4518 12.7395C28.7288 12.7001 29.0453 12.6606 29.3619 12.7001C29.6785 12.7001 29.9951 12.7001 30.2721 12.7395C34.0709 13.1734 40.1649 15.7371 46.5754 19.8784C46.9316 20.115 47.2877 20.3517 47.6439 20.5883V0H0V30.0937C2.61171 26.9384 6.92498 23.2309 12.1484 19.8784Z" fill="#008B8F"/>
    <path fill-rule="evenodd" clip-rule="evenodd" d="M29.3619 14.0805C25.6026 14.7905 19.6669 17.9458 13.573 22.6393C6.37098 28.161 1.108 34.235 0 37.903V47.9211H47.6439V24.6508C46.8524 23.9803 46.0214 23.3098 45.1509 22.6393C39.0569 17.9063 33.1212 14.7905 29.3619 14.0805Z" fill="#008B8F"/>
    <path fill-rule="evenodd" clip-rule="evenodd" d="M50.0181 11.0435C50.3347 10.4914 50.6513 9.93919 51.0074 9.42646C51.3636 8.87428 51.7197 8.36154 52.0759 7.84881C52.432 7.33607 52.8277 6.86277 53.2234 6.42892C53.6191 5.99507 54.0148 5.60066 54.4106 5.24568C53.9753 4.77239 53.54 4.33853 53.1443 3.90468C52.7486 3.47083 52.3924 3.03697 52.0363 2.60312C51.6801 2.16927 51.3636 1.73541 51.0074 1.30156C50.6909 0.867705 50.3347 0.433851 49.9786 -0.039444H52.986C53.3026 0.39441 53.6191 0.828264 53.8961 1.18323C54.1731 1.53821 54.4501 1.93262 54.7271 2.24815C55.0041 2.60312 55.2811 2.95809 55.5581 3.27362C55.8351 3.62859 56.1517 3.98356 56.4683 4.33854V-2.71574e-06H58.8821V4.41742C59.1987 4.02301 59.5153 3.66803 59.7923 3.27362C60.0693 2.91865 60.3858 2.56368 60.6628 2.20871C60.9398 1.85374 61.2168 1.49876 61.4938 1.14379C61.7708 0.788822 62.0478 0.39441 62.3248 -0.039444H65.3322C64.9365 0.473292 64.5804 0.907146 64.2638 1.341C63.9472 1.77485 63.5911 2.20871 63.235 2.60312C62.8788 3.03697 62.5622 3.43139 62.2061 3.8258C61.85 4.22021 61.4542 4.65407 61.019 5.12736C61.8895 5.91619 62.681 6.82333 63.3932 7.80936C64.1055 8.7954 64.7782 9.86031 65.3718 10.9647H62.6018C62.2852 10.4519 61.9687 10.0181 61.6917 9.58422C61.4147 9.15037 61.0981 8.75596 60.8211 8.36154C60.5441 7.96713 60.2275 7.57272 59.911 7.21775C59.5944 6.82333 59.2778 6.42892 58.8821 6.03451V11.0435H56.4683V6.11339C56.0726 6.54725 55.756 6.9811 55.4394 7.33607C55.1228 7.73048 54.8458 8.08545 54.5688 8.47987C54.2918 8.87428 54.0148 9.26869 53.6983 9.6631C53.4213 10.0575 53.1047 10.5308 52.7881 11.0435H50.0181Z" fill="#008B8F"/>
    <path fill-rule="evenodd" clip-rule="evenodd" d="M66.6381 11.0436V0H69.1311V6.50781C69.5268 5.91619 69.9225 5.32457 70.3578 4.73295C70.7931 4.10189 71.2283 3.51027 71.6636 2.91865C72.0989 2.32703 72.5342 1.8143 72.9695 1.30156C73.4048 0.788825 73.8005 0.354971 74.117 0H76.1352V11.0436H73.6818V3.8258C72.732 4.93016 71.8615 6.07395 71.0305 7.29663C70.1995 8.51931 69.4081 9.78143 68.6958 11.0436H66.6381Z" fill="#008B8F"/>
    <path fill-rule="evenodd" clip-rule="evenodd" d="M83.7725 2.09039C83.7329 2.80033 83.6933 3.51027 83.6537 4.22021C83.6142 4.93016 83.535 5.6401 83.4163 6.3106C83.2976 6.9811 83.0997 7.61216 82.9019 8.20378C82.6645 8.7954 82.3479 9.30813 81.9522 9.74199C81.5565 10.1758 81.042 10.5308 80.4485 10.8069C79.8549 11.083 79.1031 11.2408 78.2721 11.2408L77.9951 9.07149C78.7469 8.9926 79.3405 8.7954 79.7758 8.47987C80.211 8.16434 80.488 7.73048 80.7255 7.09942C81.0025 6.3106 81.2003 5.32457 81.2795 4.10189C81.3982 2.87921 81.4378 1.49877 81.4378 0H88.9959V11.0435H86.5029V2.09039H83.7725Z" fill="#008B8F"/>
    <path fill-rule="evenodd" clip-rule="evenodd" d="M55.0437 23.5859C54.3314 23.5859 53.6587 23.4675 53.0651 23.1915C52.4716 22.9548 51.9176 22.5604 51.4823 22.0871C51.047 21.6138 50.6908 20.9827 50.4138 20.2728C50.1368 19.5629 50.0181 18.7346 50.0181 17.8274C50.0181 16.9203 50.1764 16.092 50.4534 15.3821C50.7304 14.6721 51.1261 14.0805 51.5614 13.5678C52.0363 13.0945 52.5903 12.7001 53.1838 12.4634C53.817 12.2268 54.4501 12.1085 55.1228 12.1085C55.5581 12.1085 55.9143 12.1479 56.2704 12.1873C56.6265 12.2268 56.9035 12.3057 57.1805 12.3845C57.418 12.4634 57.6554 12.5423 57.8532 12.6212C58.0511 12.7001 58.1698 12.779 58.249 12.8184L57.8928 13.765C57.6158 13.6072 57.2992 13.4495 56.864 13.2917C56.4683 13.1339 55.9538 13.055 55.3207 13.055C54.6084 13.055 54.0148 13.1734 53.5004 13.41C52.986 13.6467 52.5507 13.9622 52.1945 14.3961C51.8384 14.8299 51.5614 15.3426 51.4031 15.8948C51.2448 16.4864 51.1261 17.1175 51.1261 17.8274C51.1261 18.5768 51.2053 19.2079 51.4031 19.7995C51.5614 20.3911 51.8384 20.9039 52.1945 21.2983C52.5507 21.7321 52.9464 22.0477 53.4608 22.2449C53.9753 22.4815 54.5293 22.5604 55.1624 22.5604C55.8747 22.5604 56.4682 22.4815 56.9431 22.3632C57.418 22.2449 57.7741 22.0871 58.0115 21.9688L58.3281 22.8759C58.249 22.9154 58.1302 22.9942 57.9324 23.0731C57.7345 23.152 57.5367 23.2309 57.2597 23.2703C56.9827 23.3492 56.6661 23.3887 56.31 23.4675C55.9143 23.5464 55.5185 23.5859 55.0437 23.5859Z" fill="#008B8F"/>
    <path fill-rule="evenodd" clip-rule="evenodd" d="M67.2317 12.3057V13.2523H63.6703V23.3492H62.6018V13.2523H59.0404V12.3057H67.2317Z" fill="#008B8F"/>
    <path fill-rule="evenodd" clip-rule="evenodd" d="M70.8722 12.1873C72.4551 12.1873 73.6027 12.5029 74.3941 13.0945C75.1459 13.6861 75.5416 14.5538 75.5416 15.6187C75.5416 16.2498 75.4229 16.7625 75.1855 17.2358C74.9481 17.6697 74.6315 18.0247 74.2358 18.3007C73.8005 18.5768 73.3257 18.774 72.6925 18.8924C72.099 19.0107 71.4262 19.0896 70.6348 19.0896H69.1311V23.3492H68.0627V12.5029C68.4584 12.3846 68.8937 12.3057 69.4081 12.2662C69.9225 12.2268 70.3974 12.1873 70.8722 12.1873ZM70.9118 13.1339C70.5161 13.1339 70.16 13.1339 69.883 13.1734C69.606 13.2128 69.3685 13.2128 69.1707 13.2523V18.143H70.5557C71.1492 18.143 71.6637 18.1035 72.1385 18.0247C72.6134 17.9458 73.0091 17.8274 73.3652 17.6302C73.6818 17.433 73.9588 17.1964 74.1567 16.8414C74.3545 16.5259 74.4337 16.092 74.4337 15.5793C74.4337 15.106 74.3149 14.6721 74.1567 14.3566C73.9588 14.0411 73.6818 13.8044 73.3652 13.6072C73.0487 13.41 72.653 13.2917 72.2572 13.2128C71.7824 13.1734 71.3471 13.1339 70.9118 13.1339Z" fill="#008B8F"/>
    <path fill-rule="evenodd" clip-rule="evenodd" d="M86.7403 17.788C86.7403 18.7346 86.6216 19.5629 86.3446 20.2728C86.0676 20.9827 85.6719 21.6138 85.197 22.0871C84.7222 22.5604 84.1682 22.9154 83.535 23.1915C82.9019 23.4281 82.2292 23.5464 81.5169 23.5464C80.8046 23.5464 80.1319 23.4281 79.4988 23.1915C78.8656 22.9548 78.3116 22.5998 77.8368 22.0871C77.3619 21.6138 77.0058 20.9827 76.6892 20.2728C76.4122 19.5629 76.2539 18.7346 76.2539 17.788C76.2539 16.8414 76.4122 16.0132 76.6892 15.3032C76.9662 14.5933 77.3619 14.0016 77.8368 13.4889C78.3116 13.0156 78.8656 12.6606 79.4988 12.3846C80.1319 12.1479 80.8046 12.0296 81.5169 12.0296C82.2292 12.0296 82.9019 12.1479 83.535 12.3846C84.1682 12.6212 84.7222 12.9762 85.197 13.4889C85.6719 13.9622 86.028 14.5933 86.3446 15.3032C86.582 16.0132 86.7403 16.8414 86.7403 17.788ZM85.5927 17.788C85.5927 17.0386 85.5136 16.3681 85.3157 15.7765C85.1179 15.1849 84.8409 14.6721 84.4847 14.2777C84.1286 13.8439 83.6933 13.5284 83.2185 13.3311C82.704 13.0945 82.15 13.0156 81.5565 13.0156C80.9233 13.0156 80.3693 13.1339 79.8945 13.3311C79.38 13.5284 78.9843 13.8833 78.6282 14.2777C78.272 14.7116 77.995 15.1849 77.7972 15.7765C77.5993 16.3681 77.5202 17.0386 77.5202 17.788C77.5202 18.5374 77.5993 19.2079 77.7972 19.7995C77.995 20.3911 78.272 20.9039 78.6282 21.2983C78.9843 21.7321 79.4196 22.0477 79.8945 22.2449C80.4089 22.4815 80.9629 22.5604 81.5565 22.5604C82.1896 22.5604 82.7436 22.4421 83.2185 22.2449C83.7329 22.0082 84.1286 21.6927 84.4847 21.2983C84.8409 20.8644 85.1179 20.3911 85.3157 19.7995C85.474 19.2079 85.5927 18.5374 85.5927 17.788Z" fill="#008B8F"/>
    <path fill-rule="evenodd" clip-rule="evenodd" d="M87.5713 23.3492V12.3057H88.6397V21.2983C88.9563 20.7067 89.3916 20.0362 89.906 19.2473C90.4204 18.4585 90.9744 17.6697 91.568 16.8414C92.1616 16.0131 92.7947 15.2243 93.3883 14.4355C94.0214 13.6467 94.5754 12.9367 95.1294 12.3451H96V23.3887H94.9316V14.0411C94.615 14.3961 94.2588 14.8299 93.8631 15.3426C93.4674 15.8554 93.0717 16.3681 92.676 16.9597C92.2803 17.5119 91.845 18.1035 91.4493 18.6951C91.014 19.2868 90.6183 19.8784 90.2621 20.4306C89.906 20.9827 89.5499 21.5349 89.2333 22.0477C88.9167 22.5604 88.6793 22.9942 88.4419 23.3492H87.5713Z" fill="#008B8F"/>
    <path fill-rule="evenodd" clip-rule="evenodd" d="M55.5186 35.8521C53.6983 35.8521 52.3528 35.3394 51.4031 34.3533C50.4534 33.3673 49.9786 31.9474 49.9786 30.0937C49.9786 29.1865 50.1369 28.3583 50.4139 27.6483C50.6909 26.9384 51.0866 26.3073 51.601 25.834C52.1154 25.3213 52.709 24.9663 53.3817 24.7297C54.094 24.493 54.8458 24.3353 55.6373 24.3353C56.1121 24.3353 56.5474 24.3747 56.9036 24.4536C57.2993 24.5325 57.6158 24.6113 57.8928 24.6902C58.1698 24.7691 58.4073 24.8874 58.6051 24.9663C58.803 25.0452 58.9217 25.1241 59.0404 25.203L58.3281 27.2145C57.972 27.0173 57.5763 26.8989 57.141 26.7412C56.7057 26.6228 56.1913 26.544 55.5977 26.544C55.202 26.544 54.8458 26.6228 54.4897 26.7412C54.1336 26.8595 53.7774 27.0567 53.5004 27.3722C53.2234 27.6483 52.986 28.0033 52.8277 28.4766C52.6694 28.9104 52.5903 29.4626 52.5903 30.0937C52.5903 30.6064 52.6299 31.0797 52.7486 31.5136C52.8673 31.9474 53.0256 32.3418 53.3026 32.6574C53.54 32.9729 53.8961 33.249 54.2918 33.4067C54.6876 33.6039 55.202 33.6828 55.756 33.6828C56.1121 33.6828 56.4287 33.6434 56.7453 33.6039C57.0223 33.5645 57.2993 33.5251 57.4971 33.4462C57.7345 33.4067 57.9324 33.3279 58.0907 33.249C58.249 33.1701 58.4073 33.0912 58.5655 33.0518L59.2383 35.0633C58.8821 35.2605 58.4073 35.4577 57.7345 35.6549C57.1014 35.7732 56.3496 35.8521 55.5186 35.8521Z" fill="#008B8F"/>
    <path fill-rule="evenodd" clip-rule="evenodd" d="M62.7997 26.7017V28.516H63.6307C64.4617 28.516 65.1739 28.5949 65.8467 28.7132C66.4798 28.8316 67.0338 29.0288 67.4691 29.3443C67.9044 29.6204 68.2605 30.0148 68.4979 30.4486C68.7354 30.9219 68.8541 31.4741 68.8541 32.1052C68.8541 33.3279 68.4188 34.235 67.5087 34.8266C66.5985 35.4183 65.3322 35.7338 63.7098 35.7338C63.2745 35.7338 62.7601 35.6943 62.1665 35.6549C61.6125 35.6155 61.019 35.4971 60.465 35.3788V24.5719H67.8252V26.6623H62.7997V26.7017ZM63.789 33.6039C64.1055 33.6039 64.4221 33.5645 64.7387 33.5251C65.0552 33.4856 65.2927 33.4067 65.5301 33.2884C65.7675 33.1701 65.9258 33.0123 66.0841 32.8151C66.2028 32.6179 66.2819 32.3813 66.2819 32.0657C66.2819 31.7502 66.2028 31.4741 66.0841 31.2769C65.9654 31.0797 65.7675 30.9219 65.5301 30.8036C65.2927 30.6853 65.0157 30.6064 64.6595 30.567C64.3034 30.5275 63.9472 30.4881 63.512 30.4881H62.7601V33.5251C62.8788 33.5251 63.0371 33.5251 63.1954 33.5645C63.3537 33.6039 63.5515 33.6039 63.789 33.6039Z" fill="#008B8F"/>
    <path fill-rule="evenodd" clip-rule="evenodd" d="M69.6059 35.6549V24.6113H77.1244V26.7017H72.1385V28.871H76.5309V30.9219H72.1385V33.5645H77.4806V35.6549H69.6059Z" fill="#008B8F"/>
    <path fill-rule="evenodd" clip-rule="evenodd" d="M81.6356 24.4536C83.2976 24.4536 84.5639 24.7297 85.4345 25.3213C86.305 25.9129 86.7799 26.8595 86.7799 28.1611C86.7799 29.5021 86.3446 30.4487 85.4345 31.0403C84.5243 31.6319 83.2581 31.908 81.5961 31.908H80.8046V35.6155H78.3116V24.7297C78.8656 24.6113 79.4196 24.5325 80.0528 24.493C80.6464 24.493 81.1608 24.4536 81.6356 24.4536ZM81.7939 26.5834C81.5961 26.5834 81.4378 26.5834 81.2399 26.5834C81.0816 26.5834 80.9234 26.6229 80.7651 26.6229V29.8176H81.5565C82.4271 29.8176 83.0602 29.6993 83.4955 29.4626C83.9308 29.226 84.1682 28.7921 84.1682 28.1611C84.1682 27.8455 84.1286 27.6089 84.0099 27.4117C83.8912 27.2145 83.7329 27.0567 83.5351 26.9384C83.3372 26.8201 83.0602 26.7412 82.7832 26.7017C82.4666 26.5834 82.1501 26.5834 81.7939 26.5834Z" fill="#008B8F"/>
    <path fill-rule="evenodd" clip-rule="evenodd" d="M52.5903 41.1767C53.3817 41.1767 54.094 41.2555 54.6875 41.3739C55.3207 41.4922 55.8351 41.6894 56.2308 41.9655C56.6661 42.2416 56.9827 42.5965 57.1805 43.0304C57.418 43.4643 57.4971 43.977 57.4971 44.608C57.4971 45.7518 57.1014 46.6196 56.2704 47.2112C55.479 47.7633 54.2523 48.0789 52.709 48.0789C52.2737 48.0789 51.7593 48.0394 51.2448 48C50.7304 47.9606 50.2951 47.8817 49.8994 47.7633V36.8776H56.4683V37.8242H51.047V41.1767H52.5903ZM51.047 42.0838V46.9745C51.2448 47.014 51.4823 47.014 51.7593 47.0534C52.0363 47.0928 52.3924 47.0928 52.7881 47.0928C53.263 47.0928 53.7378 47.0534 54.1731 46.9745C54.6084 46.8956 55.0041 46.7773 55.3207 46.5801C55.6373 46.3829 55.9143 46.1463 56.1121 45.8307C56.31 45.5152 56.3891 45.1208 56.3891 44.608C56.3891 44.0953 56.31 43.6615 56.1121 43.3459C55.9143 43.0304 55.6768 42.7543 55.3207 42.5965C54.9645 42.3993 54.5688 42.281 54.0544 42.2021C53.5795 42.1233 53.0255 42.0838 52.3924 42.0838H51.047Z" fill="#008B8F"/>
    <path fill-rule="evenodd" clip-rule="evenodd" d="M66.8755 47.9211C66.6777 47.3689 66.4798 46.8562 66.282 46.3435C66.0841 45.8307 65.9258 45.3574 65.7675 44.8841H60.3463C60.1484 45.3574 59.9901 45.8307 59.7923 46.3435C59.634 46.8562 59.4361 47.3689 59.2383 47.9211H58.0907C58.526 46.7773 58.9217 45.7124 59.2778 44.7264C59.634 43.7403 60.0297 42.7938 60.3858 41.926C60.742 41.0583 61.0981 40.1906 61.4543 39.3624C61.8104 38.5341 62.1665 37.7453 62.5623 36.917H63.512C63.9077 37.7453 64.2638 38.5341 64.62 39.3624C64.9761 40.1906 65.3323 41.0189 65.6884 41.926C66.0445 42.7938 66.4007 43.7403 66.7964 44.7264C67.1525 45.7124 67.5878 46.7773 68.0231 47.9211H66.8755ZM63.0767 38.1002C62.681 39.0074 62.2853 39.954 61.8895 40.9006C61.4938 41.8472 61.0981 42.8726 60.7024 43.9376H65.4114C65.0157 42.8332 64.62 41.8077 64.2243 40.8611C63.8681 39.954 63.4724 39.0074 63.0767 38.1002Z" fill="#008B8F"/>
    <path fill-rule="evenodd" clip-rule="evenodd" d="M76.4517 36.8776H77.5202V47.9211H76.4517V42.5965H70.4369V47.9211H69.3289V36.8776H70.4369V41.65H76.4517V36.8776Z" fill="#008B8F"/>
    <path fill-rule="evenodd" clip-rule="evenodd" d="M85.9489 47.9211C85.5927 47.3689 85.197 46.8168 84.7222 46.2646C84.2869 45.7124 83.7725 45.1997 83.2976 44.7264C82.7832 44.2531 82.2688 43.8192 81.7543 43.4248C81.2399 43.0304 80.7255 42.7149 80.2506 42.4388V47.9211H79.1822V36.8776H80.2506V42.0049C80.6463 41.65 81.1212 41.2161 81.596 40.7428C82.1105 40.2695 82.5853 39.7962 83.0602 39.3229C83.535 38.8496 84.0099 38.3763 84.4452 37.9425C84.8805 37.5086 85.197 37.1537 85.474 36.8381H86.7799C86.4633 37.1537 86.1072 37.5481 85.6719 38.0214C85.2366 38.4552 84.7617 38.9285 84.2869 39.4018C83.812 39.8751 83.2976 40.3484 82.8227 40.8217C82.3479 41.295 81.9126 41.6894 81.5169 42.0444C81.8335 42.2416 82.15 42.4782 82.5062 42.7543C82.8623 43.0304 83.2185 43.3459 83.6142 43.6615C83.9703 44.0164 84.3265 44.332 84.6826 44.7264C85.0387 45.0814 85.3949 45.4758 85.6719 45.8307C85.9885 46.1857 86.2655 46.5801 86.5029 46.9351C86.7403 47.2901 86.9777 47.6056 87.136 47.9211H85.9489Z" fill="#008B8F"/>
    <path fill-rule="evenodd" clip-rule="evenodd" d="M91.1328 14.6721C91.3702 14.3566 91.568 14.0411 91.8055 13.765C92.0429 13.4889 92.2407 13.2128 92.4782 12.9367C92.676 12.6606 92.8739 12.4634 93.0717 12.3057H90.5392V15.5793C90.737 15.2638 90.9349 14.9877 91.1328 14.6721Z" fill="#008B8F"/>
  </g>
  <defs>
    <clipPath id="clip0">
      <rect width="96" height="48" fill="white"/>
    </clipPath>
  </defs>
</svg>
